<svg width="80" height="80" viewBox="0 0 21.167 21.167" version="1.1" id="svg27" xmlns="http://www.w3.org/2000/svg"><g id="layer1"><path id="path22" d="M2.245 21.154C1.579 21.105.9 20.717.479 20.143a2.678 2.678 0 0 1-.442-1C.002 18.98 0 18.554 0 10.573c0-8.134.001-8.406.039-8.566C.279.98 1.009.256 2.022.037 2.185.002 2.611 0 10.594 0c8.133 0 8.405.001 8.566.039 1.026.24 1.751.97 1.97 1.983.035.163.037.589.037 8.57 0 8.134-.002 8.406-.039 8.566-.238 1.018-.942 1.725-1.961 1.968-.144.035-.616.037-8.428.04-4.552.002-8.375-.003-8.494-.012zm7.55-2.398a5.587 5.587 0 0 0 2.587-1.16 6.23 6.23 0 0 0 .815-.807c.16-.199.447-.625.558-.829l.075-.136-.474-.968c-.261-.533-.479-.973-.484-.978-.005-.006-.016.026-.023.07a3.966 3.966 0 0 1-1.127 2.221 3.864 3.864 0 0 1-2.776 1.16c-.486 0-.855-.06-1.295-.211a4.016 4.016 0 0 1-2.018-1.573 3.996 3.996 0 0 1-.594-2.821 4.205 4.205 0 0 1 .62-1.552c.252-.373.63-.764.958-.993.141-.098.179-.135.18-.176.004-.151-.114-1.551-.132-1.551-.04 0-.496.25-.698.384a5.475 5.475 0 0 0-1.902 2.16 5.446 5.446 0 0 0-.49 1.49c-.05.275-.055.348-.056.88-.002.63.014.784.133 1.282.524 2.2 2.38 3.85 4.655 4.14a7.46 7.46 0 0 0 1.489-.032zm6.776-2.265a146.14 146.14 0 0 0 1.431-.566c.02-.011-.03-.15-.19-.532-.12-.285-.224-.524-.232-.533-.008-.008-.378.116-.821.276-.627.226-.81.285-.823.263-.01-.015-.495-1.13-1.079-2.479l-1.061-2.451-1.984.005c-1.091.004-2.227.012-2.524.018l-.54.012-.024-.338c-.014-.186-.03-.402-.037-.478l-.013-.14H12.321V8.162h-1.893c-1.835 0-1.893-.001-1.893-.039 0-.063-.142-2.585-.156-2.77l-.013-.17h.055c.096 0 .305-.063.45-.136a1.476 1.476 0 0 0 .585-2.14 1.496 1.496 0 0 0-1.232-.662c-.81 0-1.47.659-1.468 1.467.12 1.31.343 3.003.433 4.326.138 1.963.256 3.622.263 3.687l.012.12 2.712.005 2.711.005 1.109 2.602c.841 1.975 1.116 2.6 1.14 2.594.016-.005.662-.257 1.435-.56z" style="fill:#003d88;stroke-width:.0206901"/></g></svg>