<?xml version="1.0" encoding="UTF-8" standalone="no"?>
<svg
   inkscape:version="1.1.1 (1:1.1+202109281949+c3084ef5ed)"
   sodipodi:docname="logosillagrande.svg"
   viewBox="0 0 1023.0001 1023.082"
   height="1023.082"
   width="1023.0001"
   id="svg10"
   version="1.1"
   xmlns:inkscape="http://www.inkscape.org/namespaces/inkscape"
   xmlns:sodipodi="http://sodipodi.sourceforge.net/DTD/sodipodi-0.dtd"
   xmlns="http://www.w3.org/2000/svg"
   xmlns:svg="http://www.w3.org/2000/svg"
   xmlns:rdf="http://www.w3.org/1999/02/22-rdf-syntax-ns#"
   xmlns:cc="http://creativecommons.org/ns#"
   xmlns:dc="http://purl.org/dc/elements/1.1/">
  <metadata
     id="metadata16">
    <rdf:RDF>
      <cc:Work
         rdf:about="">
        <dc:format>image/svg+xml</dc:format>
        <dc:type
           rdf:resource="http://purl.org/dc/dcmitype/StillImage" />
      </cc:Work>
    </rdf:RDF>
  </metadata>
  <defs
     id="defs14" />
  <sodipodi:namedview
     inkscape:current-layer="g18"
     inkscape:window-maximized="1"
     inkscape:window-y="27"
     inkscape:window-x="72"
     inkscape:cy="511.18174"
     inkscape:cx="739.4765"
     inkscape:zoom="0.50373474"
     showgrid="false"
     id="namedview12"
     inkscape:window-height="1016"
     inkscape:window-width="1848"
     inkscape:pageshadow="2"
     inkscape:pageopacity="0"
     guidetolerance="10"
     gridtolerance="10"
     objecttolerance="10"
     borderopacity="1"
     bordercolor="#666666"
     pagecolor="#ffffff"
     inkscape:pagecheckerboard="0" />
  <g
     transform="translate(-278.42405,-4.4703436)"
     id="g18"
     inkscape:label="Image"
     inkscape:groupmode="layer">
    <g
       id="g850">
      <rect
         style="fill:#ffffff;stroke:none;stroke-width:6;fill-opacity:1"
         id="rect24"
         width="835.75732"
         height="845.68317"
         x="387.60849"
         y="99.758591" />
    </g>
    <path
       sodipodi:nodetypes="sssscssssscscssssscsssssssssssssssssssssssssscsscsscccccssscssssccscccsss"
       id="path22"
       d="m 386.65602,1024.3292 c -32.12947,-2.3542 -64.8224,-21.0691 -85.14755,-48.74195 -9.94394,-13.53887 -17.52484,-30.69339 -21.30528,-48.21157 -1.69073,-7.83454 -1.77914,-28.3722 -1.77914,-413.20873 0,-392.0882 0.0588,-405.21815 1.86565,-412.94403 11.56804,-49.478958 46.75895,-84.42926 95.62746,-94.973567 7.83527,-1.690588 28.37448,-1.7790094 413.24182,-1.7790094 392.11972,0 405.25062,0.059317 412.97712,1.8654552 49.4829,11.5671002 84.4361,46.7552342 94.9811,95.6198512 1.6909,7.83455 1.7793,28.37221 1.7793,413.20875 0,392.0882 -0.059,405.21813 -1.8656,412.94402 -11.4734,49.07389 -45.4255,83.14728 -94.5544,94.89168 -6.9129,1.6526 -29.6744,1.7603 -406.33484,1.9236 -219.45638,0.095 -403.72495,-0.1724 -409.48564,-0.5945 z M 750.68534,908.73817 c 46.56548,-8.00489 87.86386,-26.52608 124.70444,-55.92646 12.44797,-9.934 29.89057,-27.2076 39.29208,-38.91125 7.69652,-9.58141 21.53361,-30.13593 26.90914,-39.97285 l 3.58388,-6.55831 -22.85344,-46.68106 c -12.56934,-25.67459 -23.06735,-46.89503 -23.32878,-47.15653 -0.26188,-0.26156 -0.74591,1.25364 -1.07841,3.36691 -6.46658,41.24097 -24.98669,77.72654 -54.36557,107.10302 -36.50294,36.50005 -82.94013,55.91452 -133.81804,55.94655 -23.41545,0.0148 -41.24895,-2.89953 -62.42814,-10.20186 -39.25853,-13.53584 -73.91408,-40.53846 -97.31995,-75.82909 -25.87561,-39.01441 -36.62315,-90.1285 -28.59942,-136.01557 4.51987,-25.84936 15.66286,-53.76403 29.85834,-74.79896 12.15005,-18.00425 30.34459,-36.8666 46.19165,-47.8873 6.8054,-4.73285 8.62058,-6.50629 8.67737,-8.47833 0.21039,-7.30547 -5.50485,-74.80869 -6.33373,-74.80869 -1.93906,0 -23.91257,12.08825 -33.68232,18.52961 -39.32122,25.92511 -70.39507,61.19898 -91.70256,104.0972 -11.3812,22.91393 -18.9431,45.90639 -23.63862,71.87579 -2.39897,13.26797 -2.62054,16.77073 -2.68233,42.3916 -0.0735,30.36755 0.70029,37.82056 6.42377,61.84188 25.26462,106.05026 114.77256,185.63608 224.43704,199.55772 16.23018,2.06038 55.90874,1.23975 71.75331,-1.4841 z M 1077.3464,799.5256 c 37.2532,-14.62459 68.3005,-26.91113 68.9937,-27.30345 0.9298,-0.52599 -1.4815,-7.2589 -9.185,-25.64952 -5.7449,-13.71494 -10.776,-25.26984 -11.1801,-25.6776 -0.4047,-0.40766 -18.2221,5.57282 -39.5954,13.29011 -30.2282,10.91458 -39.0407,13.73809 -39.672,12.71075 -0.4459,-0.72643 -23.8424,-54.50969 -51.9914,-119.51845 l -51.17996,-118.19774 -95.64291,0.27197 c -52.60364,0.14943 -107.35292,0.53506 -121.66521,0.8567 l -26.02214,0.5847 -1.18285,-16.3171 c -0.65029,-8.9744 -1.45504,-19.34684 -1.78812,-23.04987 l -0.60467,-6.7328 h 87.91152 87.91137 V 431.37875 397.9642 H 781.1794 c -88.47221,0 -91.27399,-0.0573 -91.27399,-1.86398 0,-3.05632 -6.8597,-124.61271 -7.53587,-133.53977 l -0.62381,-8.22894 h 2.68882 c 4.63374,0 14.67376,-3.03243 21.69926,-6.55391 38.74817,-19.42204 51.88348,-67.48518 28.18484,-103.13017 -13.11546,-19.72697 -35.83531,-31.95374 -59.3764,-31.95374 -39.07022,0 -70.86998,31.7634 -70.80981,70.7291 5.75437,63.21291 16.53162,144.78331 20.87539,208.55672 6.65447,94.63299 12.36529,174.63926 12.69086,177.79166 l 0.59144,5.73165 130.72024,0.25311 130.7204,0.25296 53.44475,125.44261 c 40.57718,95.24058 53.80498,125.34895 54.94118,125.05349 0.8223,-0.21402 31.9762,-12.35471 69.2295,-26.97929 z"
       style="fill:#003d88;stroke-width:0.997498" />
  </g>
</svg>
