<?xml version="1.0" encoding="UTF-8" standalone="no"?>
<!-- Created with Inkscape (http://www.inkscape.org/) -->

<svg
   width="80.000015"
   height="79.999992"
   viewBox="0 0 21.16667 21.166665"
   version="1.1"
   id="svg27"
   inkscape:export-filename="/home/programador/proyectos/docker-compose-lamp/www/jm/src/img/logo.png"
   inkscape:export-xdpi="96"
   inkscape:export-ydpi="96"
   inkscape:version="1.1.1 (1:1.1+202109281949+c3084ef5ed)"
   xmlns:inkscape="http://www.inkscape.org/namespaces/inkscape"
   xmlns:sodipodi="http://sodipodi.sourceforge.net/DTD/sodipodi-0.dtd"
   xmlns="http://www.w3.org/2000/svg"
   xmlns:svg="http://www.w3.org/2000/svg">
  <sodipodi:namedview
     id="namedview29"
     pagecolor="#ffffff"
     bordercolor="#666666"
     borderopacity="1.0"
     inkscape:pageshadow="2"
     inkscape:pageopacity="0.0"
     inkscape:pagecheckerboard="0"
     inkscape:document-units="mm"
     showgrid="false"
     units="px"
     fit-margin-top="0"
     fit-margin-left="0"
     fit-margin-right="0"
     fit-margin-bottom="0"
     inkscape:zoom="0.57848045"
     inkscape:cx="80.38301"
     inkscape:cy="393.27171"
     inkscape:window-width="1920"
     inkscape:window-height="966"
     inkscape:window-x="0"
     inkscape:window-y="27"
     inkscape:window-maximized="1"
     inkscape:current-layer="layer1" />
  <defs
     id="defs24" />
  <g
     inkscape:label="Capa 1"
     inkscape:groupmode="layer"
     id="layer1">
    <path
       sodipodi:nodetypes="sssscssssscscssssscsssssssssssssssssssssssssscsscsscccccssscssssccscccsss"
       id="path22"
       d="M 2.2449526,21.153947 C 1.5785231,21.10512 0.90040557,20.716931 0.47882146,20.142939 0.27255474,19.862117 0.11532003,19.506296 0.03690668,19.142933 0.00184,18.980426 0,18.554437 0,10.572147 0,2.4394433 0.0012,2.1670993 0.03869334,2.0068512 0.27864007,0.98055493 1.0085683,0.25561607 2.0222005,0.03690668 2.1847339,0.00184 2.6107447,0 10.593675,0 c 8.133359,0 8.405719,0.0012 8.565983,0.03869334 1.026376,0.23992007 1.751377,0.96979756 1.970102,1.98334986 0.03507,0.1625067 0.03691,0.5884962 0.03691,8.5707858 0,8.132707 -0.0012,8.405048 -0.03869,8.565299 -0.237973,1.017891 -0.942219,1.724643 -1.961251,1.968246 -0.143387,0.03427 -0.615507,0.03651 -8.428207,0.03989 -4.5519723,0.002 -8.3740744,-0.0037 -8.4935651,-0.01227 z m 7.5507087,-2.397593 c 0.9658617,-0.166026 1.8224747,-0.550205 2.5866217,-1.160027 0.258187,-0.206053 0.619992,-0.564341 0.814998,-0.807099 0.159653,-0.198746 0.44665,-0.62508 0.558149,-0.829117 l 0.07435,-0.136027 -0.474027,-0.968259 c -0.26072,-0.532544 -0.478464,-0.972699 -0.483888,-0.978123 -0.0053,-0.0053 -0.01547,0.02613 -0.0224,0.06984 -0.134134,0.855422 -0.518275,1.612206 -1.127651,2.221534 -0.757147,0.757086 -1.720347,1.159779 -2.7756596,1.160446 -0.4856828,3.12e-4 -0.8555869,-0.06013 -1.2948856,-0.2116 C 6.8369645,16.837162 6.1181376,16.277074 5.6326522,15.545071 5.0959397,14.735833 4.8730144,13.675625 5.0394437,12.723833 c 0.09376,-0.536168 0.3248777,-1.115174 0.6193205,-1.551481 0.2520267,-0.373445 0.6294105,-0.764688 0.9581096,-0.99328 0.1411467,-0.09816 0.1788,-0.13496 0.1799733,-0.175867 0.00427,-0.1515197 -0.1141867,-1.5516828 -0.1313867,-1.5516828 -0.040213,0 -0.4959974,0.2507468 -0.6986402,0.3843415 -0.8156031,0.5377388 -1.4601366,1.2693893 -1.9020994,2.1591873 -0.2360801,0.47528 -0.3929174,0.952192 -0.4903121,1.490848 -0.04976,0.275206 -0.054347,0.347862 -0.055653,0.879289 -0.00155,0.629885 0.0144,0.784474 0.1332534,1.282725 0.5240401,2.199699 2.3806169,3.850471 4.6552788,4.139233 0.3366481,0.04275 1.1596617,0.0256 1.4883098,-0.03077 z m 6.7756117,-2.265291 c 0.772707,-0.303341 1.416691,-0.558189 1.43107,-0.566328 0.0192,-0.01093 -0.03072,-0.15056 -0.190507,-0.532022 -0.119173,-0.284477 -0.22352,-0.524149 -0.231893,-0.532605 -0.0083,-0.0085 -0.377965,0.1156 -0.821288,0.275664 -0.626995,0.2264 -0.809784,0.284955 -0.82288,0.263653 -0.0093,-0.0152 -0.494539,-1.13064 -1.078406,-2.479054 l -1.061576,-2.451662 -1.983827,0.0056 c -1.091107,0.0032 -2.2267184,0.0112 -2.5235851,0.01787 l -0.5397522,0.012 -0.024533,-0.338451 C 8.7104954,9.979592 8.6939087,9.7644319 8.687002,9.6876239 L 8.6744687,9.5479705 h 1.8234643 1.823459 V 8.854885 8.1617995 h -1.893203 c -1.8350937,0 -1.8932083,-0.0012 -1.8932083,-0.038667 0,-0.063387 -0.1422934,-2.5847207 -0.1563201,-2.7698861 l -0.013067,-0.170693 h 0.055787 c 0.096107,0 0.3043628,-0.062907 0.4500855,-0.1359467 C 9.6751836,4.6437532 9.9476344,3.6468276 9.4560769,2.9074781 9.1840368,2.4982994 8.7127807,2.2446913 8.2244899,2.2446913 c -0.8103949,0 -1.469987,0.6588375 -1.468739,1.467067 0.11936,1.311163 0.3429014,3.0030995 0.4329974,4.3258892 0.1380267,1.9628805 0.2564801,3.6223715 0.2632267,3.6877585 l 0.012267,0.11888 2.711403,0.0053 2.711406,0.0053 1.108552,2.601934 c 0.841654,1.975484 1.116025,2.599993 1.139593,2.593865 0.01707,-0.0045 0.663251,-0.256267 1.43596,-0.559605 z"
       style="fill:#003d88;stroke-width:0.0206901" />
  </g>
</svg>
